<mxfile host="app.diagrams.net" modified="2024-04-14T13:41:37.550Z" agent="Mozilla/5.0 (Macintosh; Intel Mac OS X 10_15_7) AppleWebKit/537.36 (KHTML, like Gecko) Chrome/123.0.0.0 Safari/537.36" version="24.2.5" etag="bsFaeet242NlFBoStj9q" type="github">
  <diagram name="Page-1" id="2VkMMqFWBsWAl_voO5bg">
    <mxGraphModel>
      <root>
        <mxCell id="0" />
        <mxCell id="1" parent="0" />
      </root>
    </mxGraphModel>
  </diagram>
</mxfile>
